<svg xmlns="http://www.w3.org/2000/svg" xmlns:xlink="http://www.w3.org/1999/xlink" width="199.631" height="186.889" viewBox="0 0 199.631 186.889">
  <defs>
    <clipPath id="clip-path">
      <rect id="Rectangle_6266" data-name="Rectangle 6266" width="199.631" height="186.889" transform="translate(0 0)" fill="#56ffa6"/>
    </clipPath>
  </defs>
  <g id="Group_9715" data-name="Group 9715" transform="translate(0 0)" clip-path="url(#clip-path)">
    <path id="Path_14401" data-name="Path 14401" d="M157.157,16.989V0H42.474V16.989H0V59.463A29.732,29.732,0,0,0,29.732,89.195H44.491a57.325,57.325,0,0,0,48.954,42.088v21.631H67.959V169.9H50.97v16.989h101.94V169.9H135.918V152.911H110.433V130.657A57.372,57.372,0,0,0,155.14,89.2H169.9a29.731,29.731,0,0,0,29.732-29.735V16.989ZM42.474,72.206H29.732A12.759,12.759,0,0,1,16.989,59.463V33.981H42.474Zm79.815,13.142-20.349-10.7-20.349,10.7,3.888-22.67L69.025,46.643l22.748-3.306,10.171-20.613,10.171,20.613,22.748,3.306L118.4,62.691Zm60.353-25.884A12.759,12.759,0,0,1,169.9,72.206H157.157V33.971h25.485Z" transform="translate(0 0)" fill="#56ffa6"/>
  </g>
</svg>
