<svg xmlns="http://www.w3.org/2000/svg" width="199.631" height="179.262" viewBox="0 0 199.631 179.262">
  <path id="Path_14402" data-name="Path 14402" d="M161.7,71.7H136.751a10,10,0,0,0-9.982,9.958v39.848a10,10,0,0,0,9.982,9.958H161.7a10,10,0,0,0,9.982-9.958V81.67A10,10,0,0,0,161.7,71.7Zm-4.991,44.826H141.742V86.65h14.972ZM76.862,131.466H31.945V106.553a10,10,0,0,1,9.982-9.958H61.889V86.65H31.945V71.7H66.88a10,10,0,0,1,9.982,9.958V96.6a10,10,0,0,1-9.982,9.958H46.917v9.958H76.862ZM109.3,91.631H94.331V76.693H109.3Zm0,34.851H94.331V111.547H109.3Zm92.328-84.647V161.343a20,20,0,0,1-19.963,19.919H21.963A20,20,0,0,1,2,161.343V41.835A20,20,0,0,1,21.963,21.919H51.908V2H71.871V21.919H131.76V2h19.963V21.919h29.945a20,20,0,0,1,19.963,19.916ZM181.668,161.343V41.835H109.3V56.773H94.331V41.835H21.963V161.343H94.331V146.4H109.3v14.938Z" transform="translate(-2 -2)" fill="#56ffa6"/>
</svg>
