<svg id="Results" xmlns="http://www.w3.org/2000/svg" width="59" height="52.98" viewBox="0 0 59 52.98">
  <path id="Path_14402" data-name="Path 14402" d="M49.2,22.6H41.825a2.955,2.955,0,0,0-2.95,2.943V37.32a2.955,2.955,0,0,0,2.95,2.943H49.2a2.955,2.955,0,0,0,2.95-2.943V25.546A2.955,2.955,0,0,0,49.2,22.6ZM47.725,35.848H43.3v-8.83h4.425Zm-23.6,4.415H10.85V32.9a2.955,2.955,0,0,1,2.95-2.943h5.9V27.018H10.85V22.6H21.175a2.955,2.955,0,0,1,2.95,2.943v4.415a2.955,2.955,0,0,1-2.95,2.943h-5.9v2.943h8.85ZM33.713,28.49H29.288V24.075h4.425Zm0,10.3H29.288V34.376h4.425ZM61,13.773v35.32a5.911,5.911,0,0,1-5.9,5.887H7.9A5.911,5.911,0,0,1,2,49.093V13.773A5.911,5.911,0,0,1,7.9,7.887h8.85V2h5.9V7.887h17.7V2h5.9V7.887H55.1A5.911,5.911,0,0,1,61,13.773Zm-5.9,35.32V13.773H33.713v4.415H29.288V13.773H7.9v35.32H29.288V44.678h4.425v4.415Z" transform="translate(-2 -2)" fill="#e1e1e1"/>
</svg>
