<svg id="User_Focus_Logged_In" data-name="User Focus Logged In" xmlns="http://www.w3.org/2000/svg" width="137.859" height="162.387" viewBox="0 0 137.859 162.387">
  <path id="Subtraction_4" data-name="Subtraction 4" d="M30.616,134.789H0v-20.4a27.489,27.489,0,0,1,1.023-7.651,21.9,21.9,0,0,1,3.07-6.457,26.443,26.443,0,0,1,10.554-8.9,161.834,161.834,0,0,1,27.679-9.767,111.6,111.6,0,0,1,26.6-3.256,106.927,106.927,0,0,1,26.5,3.364A183.489,183.489,0,0,1,123,91.378a26.137,26.137,0,0,1,10.77,8.9,21.907,21.907,0,0,1,3.069,6.457,27.493,27.493,0,0,1,1.023,7.651v20.4H107.245V121.765h17.689v-7.379a12.007,12.007,0,0,0-2.047-6.62,13.071,13.071,0,0,0-5.062-4.667,114.361,114.361,0,0,0-25.2-9.224,111.149,111.149,0,0,0-23.694-2.5,114.169,114.169,0,0,0-23.91,2.5,109.4,109.4,0,0,0-25.2,9.224,12.338,12.338,0,0,0-4.954,4.667,12.484,12.484,0,0,0-1.939,6.62v7.379H30.616v13.023ZM68.929,65.115A35.315,35.315,0,0,1,56,62.836,29.854,29.854,0,0,1,45.665,56,30.121,30.121,0,0,1,38.88,45.581a36.068,36.068,0,0,1-2.262-13.023A36.072,36.072,0,0,1,38.88,19.535,30.12,30.12,0,0,1,45.665,9.117,29.854,29.854,0,0,1,56,2.28,35.315,35.315,0,0,1,68.929,0,35.314,35.314,0,0,1,81.853,2.28,29.848,29.848,0,0,1,92.192,9.117a30.117,30.117,0,0,1,6.786,10.418,36.069,36.069,0,0,1,2.262,13.023,36.066,36.066,0,0,1-2.262,13.023A30.118,30.118,0,0,1,92.192,56a29.848,29.848,0,0,1-10.339,6.837A35.314,35.314,0,0,1,68.929,65.115Zm0-52.091a18.839,18.839,0,0,0-13.894,5.534,19.137,19.137,0,0,0-5.493,14,19.135,19.135,0,0,0,5.493,14,18.836,18.836,0,0,0,13.894,5.534,18.835,18.835,0,0,0,13.893-5.534,19.133,19.133,0,0,0,5.493-14,19.134,19.134,0,0,0-5.493-14A18.838,18.838,0,0,0,68.929,13.024Z" transform="translate(0.001 -0.001)" fill="#56ffa6"/>
  <path id="Path_14670" data-name="Path 14670" d="M27.571,0h.04A27.571,27.571,0,0,1,55.183,27.571v.04A27.571,27.571,0,0,1,27.611,55.183h-.04A27.571,27.571,0,0,1,0,27.611v-.04A27.571,27.571,0,0,1,27.571,0Z" transform="translate(41.339 162.387) rotate(-90)" fill="#56ffa6"/>
</svg>
