<svg xmlns="http://www.w3.org/2000/svg" width="59" height="60.372" viewBox="0 0 59 60.372">
  <path id="Shop" d="M20.31,64.372a5.44,5.44,0,1,1,3.838-9.294,5.44,5.44,0,0,1-3.838,9.294Zm30.1,0a5.407,5.407,0,1,1,3.838-1.587A5.215,5.215,0,0,1,50.412,64.372ZM16.4,14.5,24.675,31.73H46.348L55.755,14.5ZM14.139,9.969H58.465A2.869,2.869,0,0,1,61.1,11.556a3.014,3.014,0,0,1,0,3.174L50.939,33.09a6.751,6.751,0,0,1-2.145,2.3,5.152,5.152,0,0,1-2.9.869h-22.8L18.88,44.122h36.95v4.534H19.558A5.043,5.043,0,0,1,15,46.54a4.362,4.362,0,0,1,.038-4.76l4.816-8.916L8.42,8.534H2.55V4h8.8ZM24.675,31.73h0Z" transform="translate(-2.55 -4)" fill="#e1e1e1"/>
</svg>
