<svg xmlns="http://www.w3.org/2000/svg" width="199.637" height="204.276" viewBox="0 0 199.637 204.276">
  <path id="Shop" d="M62.642,208.273a18.407,18.407,0,1,1,17.009-11.381A18.408,18.408,0,0,1,62.642,208.273Zm101.846,0a18.3,18.3,0,1,1,12.986-5.37,17.645,17.645,0,0,1-12.979,5.37ZM49.413,39.528l28,58.3h73.332l31.829-58.3ZM41.762,24.2h149.98a9.707,9.707,0,0,1,8.916,5.37,10.2,10.2,0,0,1,0,10.739l-34.381,62.123a22.843,22.843,0,0,1-7.258,7.782,17.432,17.432,0,0,1-9.812,2.94H72.062L57.8,139.756H182.827V155.1H60.1a17.063,17.063,0,0,1-15.422-7.16,14.759,14.759,0,0,1,.129-16.106l16.3-30.168L22.412,19.341H2.55V4H32.325Zm35.649,73.63Z" transform="translate(-2.55 -4)" fill="#56ffa6"/>
</svg>
