<svg id="User_not_logged_in" data-name="User not logged in" xmlns="http://www.w3.org/2000/svg" width="59" height="69.489" viewBox="0 0 59 69.489">
  <path id="Subtraction_1" data-name="Subtraction 1" d="M13.1,60.48H0V51.324a11.2,11.2,0,0,1,1.751-6.33A11.478,11.478,0,0,1,6.269,41a67.246,67.246,0,0,1,11.846-4.383A45.681,45.681,0,0,1,29.5,35.158a43.727,43.727,0,0,1,11.339,1.51A76.059,76.059,0,0,1,52.638,41a11.325,11.325,0,0,1,4.61,3.993A11.2,11.2,0,0,1,59,51.324v9.154H45.9V54.635h7.57V51.324a5.571,5.571,0,0,0-.876-2.97,5.7,5.7,0,0,0-2.166-2.094A47.529,47.529,0,0,0,39.64,42.121,45.491,45.491,0,0,0,29.5,41a46.718,46.718,0,0,0-10.232,1.12A45.461,45.461,0,0,0,8.482,46.26a5.385,5.385,0,0,0-2.12,2.094,5.8,5.8,0,0,0-.83,2.97v3.311H13.1v5.844ZM29.5,29.217a14.5,14.5,0,0,1-5.531-1.022,12.741,12.741,0,0,1-4.425-3.067,13.6,13.6,0,0,1-2.9-4.675,16.888,16.888,0,0,1-.968-5.843,16.888,16.888,0,0,1,.968-5.843,13.6,13.6,0,0,1,2.9-4.675,12.745,12.745,0,0,1,4.425-3.068A14.491,14.491,0,0,1,29.5,0a14.494,14.494,0,0,1,5.532,1.023,12.745,12.745,0,0,1,4.425,3.068,13.6,13.6,0,0,1,2.9,4.675,16.888,16.888,0,0,1,.968,5.843,16.888,16.888,0,0,1-.968,5.843,13.6,13.6,0,0,1-2.9,4.675,12.741,12.741,0,0,1-4.425,3.067A14.5,14.5,0,0,1,29.5,29.217Zm0-23.373a7.87,7.87,0,0,0-5.945,2.483A8.811,8.811,0,0,0,21.2,14.609a8.811,8.811,0,0,0,2.351,6.282A7.87,7.87,0,0,0,29.5,23.374a7.871,7.871,0,0,0,5.946-2.483A8.814,8.814,0,0,0,37.8,14.609a8.814,8.814,0,0,0-2.351-6.282A7.871,7.871,0,0,0,29.5,5.844Z" transform="translate(0 0)" fill="#e1e1e1"/>
  <rect id="Rectangle_4379" data-name="Rectangle 4379" width="18.013" height="18.013" rx="9" transform="translate(20.494 69.489) rotate(-90)" fill="#e1e1e1"/>
</svg>
