<svg xmlns="http://www.w3.org/2000/svg" width="59" height="72.111" viewBox="0 0 59 72.111">
  <path id="Wager" d="M2695.022,1419.576a19.858,19.858,0,0,0,3.175-23.6,19.571,19.571,0,0,0-3.175-4.219l-22.163-22.436a2.308,2.308,0,0,0-3.291,0l-22.164,22.436a19.8,19.8,0,0,0,0,27.818c.327.331.665.649,1.009.952a19.257,19.257,0,0,0,19.649,3.525,25.223,25.223,0,0,1-9.737,16.689H2684.1a25.226,25.226,0,0,1-9.738-16.689,19.264,19.264,0,0,0,20.658-4.478Z" transform="translate(-2641.713 -1368.631)" fill="#e1e1e1"/>
</svg>
