<svg xmlns="http://www.w3.org/2000/svg" width="166.179" height="203.029" viewBox="0 0 166.179 203.029">
  <path id="Wager" d="M2791.837,1512.072a55.909,55.909,0,0,0,8.94-66.447,55.07,55.07,0,0,0-8.94-11.879l-62.4-63.17a6.5,6.5,0,0,0-9.267,0l-62.4,63.17a55.747,55.747,0,0,0,0,78.323c.922.932,1.874,1.827,2.842,2.68a54.22,54.22,0,0,0,55.324,9.926,71.026,71.026,0,0,1-27.416,46.988h72.577a71.026,71.026,0,0,1-27.417-46.988,54.241,54.241,0,0,0,58.164-12.608Z" transform="translate(-2641.693 -1368.635)" fill="#56ffa6"/>
</svg>
