<svg id="Group_9032" data-name="Group 9032" xmlns="http://www.w3.org/2000/svg" xmlns:xlink="http://www.w3.org/1999/xlink" width="144.241" height="141.223" viewBox="0 0 144.241 141.223">
  <defs>
    <clipPath id="clip-path">
      <rect id="Rectangle_4455" data-name="Rectangle 4455" width="144.241" height="141.223" fill="none"/>
    </clipPath>
  </defs>
  <g id="Group_9031" data-name="Group 9031" transform="translate(0 0)" clip-path="url(#clip-path)">
    <path id="Path_14138" data-name="Path 14138" d="M64.006,43.9a3.146,3.146,0,0,1-3.147-3.147A34.5,34.5,0,0,0,26.4,6.29,3.145,3.145,0,0,1,26.4,0,40.8,40.8,0,0,1,67.153,40.75,3.146,3.146,0,0,1,64.006,43.9" transform="translate(74.071 0)" fill="#2bb3e2"/>
    <path id="Path_14139" data-name="Path 14139" d="M122.668,36.227a9.992,9.992,0,0,0-12.434,7.156L107.3,54.971a2.573,2.573,0,0,1-3.9,1.532,41.751,41.751,0,0,1-9.266-8.445l-.356-.439c-.665-.816-2.6-3.829-2.607-3.829L70.828,8.76A9.992,9.992,0,0,0,53.548,18.8L70.572,48.1c.021.042-.029.08-.059.046L43.01,19.424a9.995,9.995,0,0,0-14.129-.306c-.054.05-.1.1-.155.155a9.99,9.99,0,0,0-.151,13.974L55.414,61.27a.037.037,0,0,1-.05.054L28.3,39.52a10.265,10.265,0,0,0-14.179,1.009,9.993,9.993,0,0,0,1.314,14.288L41.051,75.457c.038.025,0,.084-.042.059L19.637,63.961a10.262,10.262,0,0,0-13.756,3.57A9.99,9.99,0,0,0,9.768,81.341L33.15,93.984a25.932,25.932,0,0,1,6,4.474l14.283,14.283c14.673,14.673,38.6,15.656,53.685,1.41a37.913,37.913,0,0,0,11.053-19.49c.749-3.407,1.431-6.834,2.285-10.22l9.048-35.748a10.277,10.277,0,0,0-6.838-12.467" transform="translate(14.413 12.06)" fill="#fcd541"/>
    <path id="Path_14140" data-name="Path 14140" d="M25.778,41.7a1.538,1.538,0,0,1-2.586-1.435C26.1,27.822,39.622,19.883,40.2,19.548a1.538,1.538,0,0,1,1.54,2.662c-.13.075-12.948,7.621-15.552,18.749a1.562,1.562,0,0,1-.41.737" transform="translate(73.737 61.607)" fill="#ffaf2c"/>
    <path id="Path_14141" data-name="Path 14141" d="M16.067,56.81a1.537,1.537,0,0,1-2.486-1.724c.41-.9,10.312-22.214,37.155-40.331a1.537,1.537,0,1,1,1.72,2.549c-26.077,17.6-35.983,38.845-36.079,39.059a1.476,1.476,0,0,1-.31.448" transform="translate(42.812 46.158)" fill="#ffaf2c"/>
    <path id="Path_14142" data-name="Path 14142" d="M48.5,32.093a3.146,3.146,0,0,1-3.147-3.147A18.97,18.97,0,0,0,26.4,10a3.145,3.145,0,0,1,0-6.29,25.269,25.269,0,0,1,25.244,25.24A3.146,3.146,0,0,1,48.5,32.093" transform="translate(74.071 11.803)" fill="#2bb3e2"/>
    <path id="Path_14143" data-name="Path 14143" d="M40.75,67.153A40.8,40.8,0,0,1,0,26.4a3.145,3.145,0,0,1,6.29,0A34.5,34.5,0,0,0,40.75,60.863a3.145,3.145,0,1,1,0,6.29" transform="translate(0 74.07)" fill="#2bb3e2"/>
    <path id="Path_14144" data-name="Path 14144" d="M28.946,51.643A25.269,25.269,0,0,1,3.706,26.4a3.145,3.145,0,0,1,6.29,0,18.973,18.973,0,0,0,18.95,18.954,3.145,3.145,0,1,1,0,6.29" transform="translate(11.804 74.07)" fill="#2bb3e2"/>
  </g>
</svg>
